<svg width="81" height="122" viewBox="0 0 81 122" fill="none" xmlns="http://www.w3.org/2000/svg">
<path d="M38.86 121.975C32.865 121.975 27.2275 120.738 21.9475 118.262C16.7225 115.787 12.2125 112.35 8.4175 107.95C4.6225 103.55 1.9 98.435 0.25 92.605L21.865 86.83C22.58 89.635 23.845 92.055 25.66 94.09C27.53 96.125 29.675 97.72 32.095 98.875C34.57 99.975 37.1 100.525 39.685 100.525C43.095 100.525 46.2025 99.7 49.0075 98.05C51.8675 96.4 54.1225 94.1725 55.7725 91.3675C57.4775 88.5625 58.33 85.455 58.33 82.045C58.33 78.635 57.4775 75.5275 55.7725 72.7225C54.1225 69.9175 51.8675 67.69 49.0075 66.04C46.2025 64.39 43.095 63.565 39.685 63.565C35.505 63.565 32.095 64.28 29.455 65.71C26.815 67.085 24.835 68.405 23.515 69.67L4.54 63.895L8.17 0.699995H73.015V21.655H20.545L28.465 14.23L25.99 54.985L22.195 50.365C25.165 47.945 28.5475 46.185 32.3425 45.085C36.1375 43.985 39.685 43.435 42.985 43.435C50.465 43.435 57.0375 45.1125 62.7025 48.4675C68.4225 51.7675 72.8775 56.3325 76.0675 62.1625C79.3125 67.9375 80.935 74.565 80.935 82.045C80.935 89.525 78.9825 96.29 75.0775 102.34C71.1725 108.335 66.03 113.12 59.65 116.695C53.27 120.215 46.34 121.975 38.86 121.975Z" fill="url(#paint0_linear_1_11)"/>
<defs>
<linearGradient id="paint0_linear_1_11" x1="41" y1="37" x2="90" y2="148.5" gradientUnits="userSpaceOnUse">
<stop stop-color="#E21F4D"/>
<stop offset="1" stop-color="#981433"/>
</linearGradient>
</defs>
</svg>
