<svg width="14.000000" height="14.000000" viewBox="0 0 14 14" fill="none" xmlns="http://www.w3.org/2000/svg" xmlns:xlink="http://www.w3.org/1999/xlink">
	<desc>
			Created with Pixso.
	</desc>
	<defs>
		<clipPath id="clip1_633">
			<rect id="Frame" width="14.000000" height="14.000000" transform="translate(-0.599609 0.000000)" fill="white" fill-opacity="0"/>
		</clipPath>
	</defs>
	<rect id="Frame" width="14.000000" height="14.000000" transform="translate(-0.599609 0.000000)" fill="#FFFFFF" fill-opacity="0"/>
	<g clip-path="url(#clip1_633)">
		<path id="Vector" d="M6.12 4.33C5.36 4.34 4.62 4.58 4.02 5.03C3.41 5.49 2.97 6.13 2.76 6.85C2.54 7.58 2.57 8.35 2.84 9.06C3.1 9.77 3.59 10.37 4.23 10.78C4.86 11.19 5.62 11.38 6.37 11.33C7.13 11.27 7.84 10.97 8.41 10.48C8.98 9.98 9.38 9.31 9.54 8.57C9.7 7.83 9.61 7.06 9.3 6.37C9.26 6.29 9.26 6.2 9.29 6.11C9.33 6.03 9.39 5.96 9.47 5.92C9.56 5.88 9.65 5.88 9.74 5.91C9.82 5.94 9.89 6 9.93 6.08C10.31 6.91 10.41 7.83 10.22 8.72C10.03 9.61 9.56 10.41 8.87 11.01C8.19 11.6 7.33 11.96 6.42 12.02C5.52 12.09 4.61 11.86 3.85 11.37C3.08 10.88 2.5 10.16 2.18 9.31C1.86 8.46 1.83 7.53 2.09 6.65C2.34 5.78 2.87 5.02 3.6 4.47C4.32 3.93 5.21 3.64 6.12 3.63L6.12 4.33Z" fill="#E21F4D" fill-opacity="1.000000" fill-rule="evenodd"/>
		<path id="Vector" d="M6.12 5.36L6.12 2.61C6.12 2.58 6.12 2.54 6.14 2.51C6.16 2.49 6.19 2.46 6.22 2.45C6.25 2.44 6.28 2.43 6.31 2.44C6.35 2.44 6.38 2.45 6.4 2.47L8.05 3.85C8.07 3.87 8.09 3.89 8.1 3.91C8.11 3.93 8.12 3.96 8.12 3.98C8.12 4.01 8.11 4.04 8.1 4.06C8.09 4.08 8.07 4.1 8.05 4.12L6.4 5.5C6.38 5.52 6.35 5.53 6.31 5.53C6.28 5.54 6.25 5.53 6.22 5.52C6.19 5.51 6.16 5.48 6.14 5.45C6.12 5.43 6.12 5.39 6.12 5.36L6.12 5.36Z" fill="#E21F4D" fill-opacity="1.000000" fill-rule="nonzero"/>
	</g>
</svg>
