<svg width="190" height="63" viewBox="0 0 190 63" fill="none" xmlns="http://www.w3.org/2000/svg">
<path d="M132.5 4L134.256 8.74441L139 10.5L134.256 12.2556L132.5 17L130.744 12.2556L126 10.5L130.744 8.74441L132.5 4Z" fill="#E21F4D"/>
<g filter="url(#filter0_d_1_43)">
<path d="M13.97 15.59L4.07 15.545V46.955L13.97 47C22.16 47 28.775 40.025 28.775 31.34C28.775 22.61 22.16 15.59 13.97 15.59ZM13.745 41.105H9.875V21.665L13.745 21.62C18.785 21.62 22.88 25.985 22.88 31.34C22.88 36.695 18.785 41.105 13.745 41.105ZM49.9827 39.125C50.1177 38.495 50.1627 37.82 50.1627 37.145C50.1627 31.52 45.7527 26.93 40.3077 26.93C34.9077 26.93 30.4977 31.52 30.4977 37.145C30.4977 42.815 34.9077 47.405 40.3077 47.405C43.0077 47.405 45.4827 46.28 47.2377 44.435C47.8227 43.85 48.3627 43.175 48.7677 42.455V42.41L43.4577 40.43H43.4127C42.6027 41.24 41.5227 41.78 40.3077 41.78C38.5527 41.78 37.0227 40.655 36.3027 39.125H36.3477C36.3477 39.125 49.5777 39.125 49.9827 39.125ZM36.3027 35.165C36.9777 33.59 38.5077 32.42 40.3077 32.42C42.0627 32.42 43.5477 33.59 44.2677 35.12L36.3027 35.165ZM57.928 37.235C57.928 34.805 59.773 32.735 62.068 32.735C64.318 32.735 66.163 34.805 66.163 37.235V47H71.383V37.235C71.383 31.79 67.198 27.38 62.068 27.38C60.583 27.38 59.008 27.875 57.928 28.865C57.928 28.505 57.928 27.29 57.928 27.29H52.798V47H57.928V37.235ZM85.6177 41.87H81.1627C80.3977 41.87 79.8127 41.285 79.8127 40.565V32.465H85.6177V27.425H79.8127L79.7677 21.845H74.5477C74.5477 21.89 74.5477 40.655 74.5477 41.465C74.5477 44.525 77.1127 47.045 80.3077 47.045L85.6177 47V41.87ZM88.6134 47.045H93.8784V27.335H88.6134V47.045ZM91.2234 25.13C92.7984 25.13 94.1034 23.825 94.1034 22.16C94.1034 20.54 92.7984 19.19 91.2234 19.19C89.6484 19.19 88.3884 20.54 88.3884 22.16C88.3884 23.825 89.6484 25.13 91.2234 25.13ZM108.828 35.75C108.558 35.66 103.833 34.085 103.698 33.95C101.943 32.87 103.383 31.385 105.408 31.385C106.398 31.385 107.793 31.88 107.838 32.87H113.868C113.868 31.205 112.923 29.63 111.258 28.505C108.153 26.255 102.618 26.255 99.5132 28.505C96.6332 30.395 96.0032 33.815 98.3882 36.29C99.2882 37.235 100.503 37.955 101.943 38.405C101.988 38.405 106.398 39.935 106.443 39.935C108.873 40.7 107.883 42.725 105.408 42.77C103.923 42.77 102.933 42.005 102.933 41.285H96.9482C96.9482 42.95 97.8482 44.525 99.5132 45.65C102.618 47.9 108.153 47.9 111.258 45.65C114.138 43.76 114.768 40.34 112.383 37.865C111.528 36.965 110.268 36.245 108.828 35.75ZM127.717 41.87H123.262C122.497 41.87 121.912 41.285 121.912 40.565V32.465H127.717V27.425H121.912L121.867 21.845H116.647C116.647 21.89 116.647 40.655 116.647 41.465C116.647 44.525 119.212 47.045 122.407 47.045L127.717 47V41.87Z" fill="#3F3F3F"/>
<path d="M145.788 15.545H137.373L128.958 47H134.943L137.058 39.17H146.193L148.353 47H154.338L145.788 15.545ZM138.543 33.68L141.648 21.845L144.708 33.68H138.543ZM165.472 27.29C163.987 27.29 162.502 27.785 161.287 28.82C161.287 28.46 161.287 27.245 161.287 27.245H156.157V47H161.287V37.19C161.287 34.805 163.132 32.735 165.427 32.735C167.407 32.735 169.027 34.265 169.432 36.2C169.522 36.515 169.567 36.875 169.567 37.19V47C169.567 47 172.942 47 174.742 47C174.742 42.635 174.742 37.055 174.742 37.055C174.742 36.65 174.787 36.245 174.877 35.885C175.417 34.085 176.992 32.645 178.837 32.645C181.132 32.645 182.977 34.715 182.977 37.145V47H188.197V37.19C188.197 32.51 185.182 28.64 181.132 27.605C180.412 27.425 179.692 27.335 178.927 27.335C176.272 27.335 173.842 28.505 172.177 30.35C171.412 29.54 170.557 28.865 169.612 28.37C168.352 27.695 166.957 27.29 165.472 27.29Z" fill="#E21F4D"/>
</g>
<defs>
<filter id="filter0_d_1_43" x="0.0699997" y="15.5449" width="192.127" height="40.355" filterUnits="userSpaceOnUse" color-interpolation-filters="sRGB">
<feFlood flood-opacity="0" result="BackgroundImageFix"/>
<feColorMatrix in="SourceAlpha" type="matrix" values="0 0 0 0 0 0 0 0 0 0 0 0 0 0 0 0 0 0 127 0" result="hardAlpha"/>
<feOffset dy="4"/>
<feGaussianBlur stdDeviation="2"/>
<feComposite in2="hardAlpha" operator="out"/>
<feColorMatrix type="matrix" values="0 0 0 0 0 0 0 0 0 0 0 0 0 0 0 0 0 0 0.25 0"/>
<feBlend mode="normal" in2="BackgroundImageFix" result="effect1_dropShadow_1_43"/>
<feBlend mode="normal" in="SourceGraphic" in2="effect1_dropShadow_1_43" result="shape"/>
</filter>
</defs>
</svg>
