<svg width="104" height="29" viewBox="0 0 104 29" fill="none" xmlns="http://www.w3.org/2000/svg">
<path d="M1.49122 23V7.6617H6.14597C6.3093 7.6617 6.58624 7.66525 6.9768 7.67235C7.37446 7.67945 7.75436 7.70786 8.11652 7.75756C9.28109 7.92089 10.2539 8.35405 11.0351 9.05706C11.8162 9.76007 12.402 10.6548 12.7926 11.7413C13.1831 12.8277 13.3784 14.0243 13.3784 15.3309C13.3784 16.6374 13.1831 17.834 12.7926 18.9204C12.402 20.0069 11.8162 20.9016 11.0351 21.6046C10.2539 22.3076 9.28109 22.7408 8.11652 22.9041C7.76146 22.9467 7.38156 22.9751 6.9768 22.9893C6.57204 22.9964 6.29509 23 6.14597 23H1.49122ZM3.11027 21.4981H6.14597C6.43711 21.4981 6.74956 21.491 7.08331 21.4768C7.42416 21.4555 7.71531 21.42 7.95674 21.3703C8.85148 21.2141 9.57223 20.8519 10.119 20.2838C10.6729 19.7158 11.0777 19.0057 11.3333 18.1535C11.5889 17.2943 11.7168 16.3534 11.7168 15.3309C11.7168 14.3012 11.5889 13.3568 11.3333 12.4975C11.0777 11.6383 10.6729 10.9282 10.119 10.3672C9.56513 9.80622 8.84438 9.44762 7.95674 9.2914C7.71531 9.24169 7.42061 9.20973 7.07266 9.19553C6.73181 9.17423 6.42291 9.16358 6.14597 9.16358H3.11027V21.4981ZM20.6721 23.3195C19.5501 23.3195 18.5773 23.071 17.7535 22.5739C16.9369 22.0769 16.3014 21.3774 15.8469 20.4756C15.3924 19.5737 15.1652 18.5157 15.1652 17.3014C15.1652 16.0445 15.3889 14.958 15.8363 14.042C16.2836 13.126 16.9121 12.4194 17.7216 11.9223C18.5382 11.4253 19.5004 11.1767 20.6082 11.1767C21.7443 11.1767 22.7136 11.4395 23.5161 11.9649C24.3185 12.4833 24.9256 13.2289 25.3375 14.2018C25.7493 15.1746 25.9375 16.3357 25.902 17.6849H24.3043V17.131C24.2759 15.6397 23.9528 14.5142 23.335 13.7544C22.7243 12.9946 21.8296 12.6147 20.6508 12.6147C19.4152 12.6147 18.4672 13.0159 17.8068 13.8183C17.1535 14.6207 16.8269 15.764 16.8269 17.2481C16.8269 18.6968 17.1535 19.8223 17.8068 20.6247C18.4672 21.42 19.401 21.8177 20.6082 21.8177C21.4319 21.8177 22.1491 21.6295 22.7598 21.2531C23.3776 20.8697 23.864 20.3193 24.2191 19.6021L25.6783 20.1667C25.2239 21.1679 24.5528 21.9455 23.6652 22.4994C22.7847 23.0462 21.787 23.3195 20.6721 23.3195ZM16.273 17.6849V16.3747H25.0605V17.6849H16.273ZM36.262 23V17.131C36.262 16.4919 36.2017 15.906 36.081 15.3735C35.9602 14.8338 35.765 14.3651 35.4951 13.9674C35.2324 13.5627 34.888 13.2502 34.4619 13.0301C34.0429 12.81 33.5317 12.6999 32.9281 12.6999C32.3742 12.6999 31.8842 12.7958 31.4582 12.9875C31.0392 13.1792 30.6841 13.4562 30.393 13.8183C30.109 14.1734 29.8924 14.6065 29.7433 15.1178C29.5941 15.6291 29.5196 16.2114 29.5196 16.8647L28.4118 16.6197C28.4118 15.4409 28.6177 14.4503 29.0296 13.6479C29.4415 12.8455 30.0095 12.2383 30.7338 11.8265C31.4582 11.4146 32.289 11.2087 33.2263 11.2087C33.9151 11.2087 34.5152 11.3152 35.0264 11.5282C35.5448 11.7413 35.9815 12.0289 36.3366 12.391C36.6987 12.7532 36.9899 13.1686 37.21 13.6372C37.4302 14.0988 37.5899 14.5923 37.6893 15.1178C37.7888 15.6362 37.8385 16.1546 37.8385 16.673V23H36.262ZM27.9431 23V11.4963H29.3598V14.3296H29.5196V23H27.9431ZM46.8657 23C46.2195 23.1349 45.5804 23.1882 44.9484 23.1598C44.3235 23.1314 43.7625 22.9964 43.2655 22.755C42.7755 22.5136 42.4027 22.1372 42.147 21.6259C41.9411 21.1999 41.8275 20.7703 41.8062 20.3371C41.792 19.8968 41.7849 19.3962 41.7849 18.8352V8.3008H43.34V18.7713C43.34 19.2542 43.3436 19.6589 43.3507 19.9856C43.3649 20.3051 43.4394 20.5892 43.5743 20.8377C43.83 21.3135 44.2347 21.5975 44.7886 21.6899C45.3496 21.7822 46.042 21.7609 46.8657 21.6259V23ZM39.3244 12.8384V11.4963H46.8657V12.8384H39.3244ZM49.3452 9.3127V7.55519H50.911V9.3127H49.3452ZM49.3452 23V11.4963H50.911V23H49.3452ZM58.3969 23.3089C57.0477 23.3089 55.9364 23.0178 55.0629 22.4355C54.1966 21.8532 53.664 21.0437 53.4652 20.0069L55.0629 19.7406C55.2334 20.3939 55.6204 20.9158 56.224 21.3064C56.8346 21.6899 57.5874 21.8816 58.4821 21.8816C59.3555 21.8816 60.0443 21.7005 60.5485 21.3384C61.0527 20.9691 61.3048 20.4685 61.3048 19.8365C61.3048 19.4814 61.2231 19.1938 61.0598 18.9737C60.9036 18.7465 60.5805 18.537 60.0905 18.3453C59.6005 18.1535 58.8691 17.9263 57.8963 17.6635C56.8524 17.3795 56.0358 17.0955 55.4464 16.8114C54.857 16.5274 54.438 16.2007 54.1895 15.8315C53.941 15.4551 53.8167 14.9971 53.8167 14.4574C53.8167 13.8041 54.0013 13.2325 54.3706 12.7425C54.7398 12.2454 55.2511 11.862 55.9044 11.5921C56.5577 11.3152 57.3175 11.1767 58.1838 11.1767C59.0502 11.1767 59.8242 11.3187 60.5059 11.6028C61.1947 11.8797 61.7486 12.2703 62.1675 12.7745C62.5865 13.2786 62.835 13.8645 62.9132 14.532L61.3154 14.8196C61.2089 14.145 60.8716 13.6124 60.3035 13.2218C59.7425 12.8242 59.0289 12.6182 58.1625 12.604C57.3459 12.5827 56.682 12.739 56.1707 13.0727C55.6594 13.3994 55.4038 13.8361 55.4038 14.3829C55.4038 14.6882 55.4961 14.9509 55.6807 15.1711C55.8653 15.3841 56.1991 15.5865 56.682 15.7782C57.1719 15.9699 57.8678 16.1794 58.7697 16.4067C59.8277 16.6765 60.6586 16.9605 61.2622 17.2588C61.8657 17.557 62.2954 17.9085 62.551 18.3133C62.8066 18.7181 62.9345 19.2187 62.9345 19.8152C62.9345 20.9016 62.5297 21.7573 61.7202 22.3822C60.9178 23 59.81 23.3089 58.3969 23.3089ZM71.5599 23C70.9137 23.1349 70.2746 23.1882 69.6426 23.1598C69.0177 23.1314 68.4568 22.9964 67.9597 22.755C67.4697 22.5136 67.0969 22.1372 66.8413 21.6259C66.6353 21.1999 66.5217 20.7703 66.5004 20.3371C66.4862 19.8968 66.4791 19.3962 66.4791 18.8352V8.3008H68.0342V18.7713C68.0342 19.2542 68.0378 19.6589 68.0449 19.9856C68.0591 20.3051 68.1337 20.5892 68.2686 20.8377C68.5242 21.3135 68.929 21.5975 69.4829 21.6899C70.0438 21.7822 70.7362 21.7609 71.5599 21.6259V23ZM64.0186 12.8384V11.4963H71.5599V12.8384H64.0186Z" fill="#3F3F3F"/>
<path d="M72.7612 23L78.0444 7.6617H80.1215L85.4047 23H83.775L78.7581 8.53513H79.3759L74.3909 23H72.7612ZM75.1152 19.2826V17.8127H83.04V19.2826H75.1152ZM101.047 23L101.058 15.448C101.058 14.5604 100.809 13.8645 100.312 13.3603C99.8224 12.849 99.1975 12.5934 98.4377 12.5934C98.0046 12.5934 97.582 12.6928 97.1702 12.8916C96.7583 13.0905 96.4175 13.41 96.1476 13.8503C95.8849 14.2905 95.7535 14.8657 95.7535 15.5758L94.8268 15.3095C94.8055 14.4858 94.9653 13.7651 95.3062 13.1473C95.6541 12.5295 96.1299 12.0502 96.7335 11.7093C97.3442 11.3614 98.033 11.1874 98.7999 11.1874C99.9574 11.1874 100.884 11.546 101.58 12.2632C102.276 12.9733 102.624 13.9355 102.624 15.1498L102.613 23H101.047ZM87.3175 23V11.4963H88.7235V14.3296H88.8939V23H87.3175ZM94.1984 23L94.209 15.5545C94.209 14.6385 93.9641 13.9177 93.4741 13.3923C92.9912 12.8597 92.3521 12.5934 91.5568 12.5934C90.7615 12.5934 90.1188 12.8668 89.6289 13.4136C89.1389 13.9532 88.8939 14.674 88.8939 15.5758L87.9566 15.0646C87.9566 14.326 88.1305 13.6657 88.4785 13.0834C88.8264 12.494 89.3022 12.0324 89.9058 11.6987C90.5094 11.3578 91.1946 11.1874 91.9616 11.1874C92.693 11.1874 93.3427 11.3436 93.9108 11.656C94.486 11.9685 94.9369 12.423 95.2635 13.0195C95.5902 13.6159 95.7535 14.3403 95.7535 15.1924L95.7429 23H94.1984Z" fill="#E21F4D"/>
<path d="M60.5 1L61.1752 2.82477L63 3.5L61.1752 4.17523L60.5 6L59.8248 4.17523L58 3.5L59.8248 2.82477L60.5 1Z" fill="#E21F4D"/>
</svg>
