<svg width="14" height="14" viewBox="0 0 14 14" fill="none" xmlns="http://www.w3.org/2000/svg">
<path d="M9.89914 8.36033C10.5767 7.43525 10.88 6.28844 10.7484 5.14933C10.6167 4.01023 10.0598 2.96283 9.18911 2.21669C8.31837 1.47055 7.19802 1.0807 6.0522 1.12512C4.90637 1.16955 3.81956 1.64498 3.00922 2.45629C2.19887 3.26761 1.72474 4.35497 1.68168 5.50085C1.63862 6.64674 2.02981 7.76662 2.77699 8.63646C3.52416 9.5063 4.57222 10.062 5.71149 10.1922C6.85075 10.3225 7.9972 10.0179 8.92147 9.33916C8.94247 9.36716 8.96405 9.394 8.98914 9.41967L11.6841 12.1147C11.8154 12.246 11.9935 12.3198 12.1792 12.3199C12.3649 12.3199 12.543 12.2462 12.6743 12.115C12.8057 11.9837 12.8795 11.8056 12.8796 11.6199C12.8796 11.4342 12.8059 11.2561 12.6746 11.1247L9.97964 8.42975C9.95462 8.4044 9.92771 8.38158 9.89914 8.36033ZM10.08 5.67C10.08 6.17559 9.98039 6.67623 9.78691 7.14333C9.59343 7.61043 9.30984 8.03485 8.95233 8.39236C8.59483 8.74986 8.1704 9.03345 7.7033 9.22693C7.2362 9.42041 6.73556 9.52 6.22997 9.52C5.72438 9.52 5.22374 9.42041 4.75664 9.22693C4.28954 9.03345 3.86511 8.74986 3.50761 8.39236C3.1501 8.03485 2.86651 7.61043 2.67303 7.14333C2.47955 6.67623 2.37997 6.17559 2.37997 5.67C2.37997 4.64892 2.78559 3.66965 3.50761 2.94764C4.22962 2.22562 5.20889 1.82 6.22997 1.82C7.25105 1.82 8.23032 2.22562 8.95233 2.94764C9.67435 3.66965 10.08 4.64892 10.08 5.67Z" fill="#E21F4D"/>
</svg>
