<svg width="26" height="26" viewBox="0 0 26 26" fill="none" xmlns="http://www.w3.org/2000/svg">
<path d="M13 24.25C14.4774 24.25 15.9403 23.959 17.3052 23.3936C18.6701 22.8283 19.9103 21.9996 20.955 20.955C21.9996 19.9103 22.8283 18.6701 23.3936 17.3052C23.959 15.9403 24.25 14.4774 24.25 13C24.25 11.5226 23.959 10.0597 23.3936 8.69481C22.8283 7.3299 21.9996 6.08971 20.955 5.04505C19.9103 4.00039 18.6701 3.17172 17.3052 2.60636C15.9403 2.04099 14.4774 1.75 13 1.75C10.0163 1.75 7.15483 2.93526 5.04505 5.04505C2.93526 7.15483 1.75 10.0163 1.75 13C1.75 15.9837 2.93526 18.8452 5.04505 20.955C7.15483 23.0647 10.0163 24.25 13 24.25V24.25Z" stroke="#E21F4D" stroke-width="2.875" stroke-linecap="round" stroke-linejoin="round"/>
<path d="M13 6.75V13L16.75 16.75" stroke="#E21F4D" stroke-width="2.875" stroke-linecap="round" stroke-linejoin="round"/>
</svg>
