<svg width="26" height="26" viewBox="0 0 26 26" fill="none" xmlns="http://www.w3.org/2000/svg">
<path d="M1.75 24.2487L3.8125 19.4987C2.23458 17.2588 1.52833 14.52 1.82631 11.7963C2.12428 9.07265 3.40598 6.55135 5.43088 4.70558C7.45579 2.85981 10.0847 1.81645 12.8242 1.7713C15.5638 1.72616 18.2256 2.68234 20.3102 4.4604C22.3948 6.23845 23.7589 8.71615 24.1465 11.4285C24.534 14.1409 23.9184 16.9014 22.4151 19.1921C20.9119 21.4828 18.6243 23.1462 15.9817 23.8701C13.3392 24.5939 10.5233 24.3285 8.0625 23.1237L1.75 24.2487" stroke="#E21F4D" stroke-width="2.875" stroke-linecap="round" stroke-linejoin="round"/>
<path d="M9.25 10.5C9.25 12.1576 9.90848 13.7473 11.0806 14.9194C12.2527 16.0915 13.8424 16.75 15.5 16.75H16.75C16.9158 16.75 17.0747 16.6842 17.1919 16.5669C17.3092 16.4497 17.375 16.2908 17.375 16.125C17.375 15.9592 17.3092 15.8003 17.1919 15.6831C17.0747 15.5658 16.9158 15.5 16.75 15.5H15.5C15.3342 15.5 15.1753 15.5658 15.0581 15.6831C14.9408 15.8003 14.875 15.9592 14.875 16.125C14.875 16.2908 14.9408 16.4497 15.0581 16.5669C15.1753 16.6842 15.3342 16.75 15.5 16.75M9.25 10.5C9.25 10.6658 9.31585 10.8247 9.43306 10.9419C9.55027 11.0592 9.70924 11.125 9.875 11.125C10.0408 11.125 10.1997 11.0592 10.3169 10.9419C10.4342 10.8247 10.5 10.6658 10.5 10.5V9.25C10.5 9.08424 10.4342 8.92527 10.3169 8.80806C10.1997 8.69085 10.0408 8.625 9.875 8.625C9.70924 8.625 9.55027 8.69085 9.43306 8.80806C9.31585 8.92527 9.25 9.08424 9.25 9.25V10.5Z" stroke="#E21F4D" stroke-width="2.875" stroke-linecap="round" stroke-linejoin="round"/>
</svg>
